<?xml version="1.0" encoding="UTF-8" standalone="no"?>
<svg
   xmlns:dc="http://purl.org/dc/elements/1.1/"
   xmlns:cc="http://creativecommons.org/ns#"
   xmlns:rdf="http://www.w3.org/1999/02/22-rdf-syntax-ns#"
   xmlns:svg="http://www.w3.org/2000/svg"
   xmlns="http://www.w3.org/2000/svg"
   xmlns:sodipodi="http://sodipodi.sourceforge.net/DTD/sodipodi-0.dtd"
   xmlns:inkscape="http://www.inkscape.org/namespaces/inkscape"
   version="1.1"
   id="svg2"
   width="1014"
   height="451"
   viewBox="0 0 1014 451"
   sodipodi:docname="negativo.svg"
   inkscape:version="1.0.2-2 (e86c870879, 2021-01-15)">
  <metadata
     id="metadata8">
    <rdf:RDF>
      <cc:Work
         rdf:about="">
        <dc:format>image/svg+xml</dc:format>
        <dc:type
           rdf:resource="http://purl.org/dc/dcmitype/StillImage" />
        <dc:title></dc:title>
      </cc:Work>
    </rdf:RDF>
  </metadata>
  <defs
     id="defs6" />
  <sodipodi:namedview
     pagecolor="#ffffff"
     bordercolor="#666666"
     borderopacity="1"
     objecttolerance="10"
     gridtolerance="10"
     guidetolerance="10"
     inkscape:pageopacity="0"
     inkscape:pageshadow="2"
     inkscape:window-width="1600"
     inkscape:window-height="837"
     id="namedview4"
     showgrid="false"
     inkscape:zoom="0.60416667"
     inkscape:cx="268.46817"
     inkscape:cy="104.64725"
     inkscape:window-x="-8"
     inkscape:window-y="-8"
     inkscape:window-maximized="1"
     inkscape:current-layer="g10" />
  <g
     inkscape:groupmode="layer"
     inkscape:label="Image"
     id="g10">
    <path
       style="fill:#fbfbfb"
       d="m 75.273268,388.69074 c -2.088842,-1.5274 -3.486576,-7.80693 -3.548183,-15.94074 -0.04149,-5.47828 0.07459,-5.75 2.456449,-5.75 2.446375,0 2.5,0.16228 2.5,7.56574 0,9.15222 1.009856,11.43426 5.059935,11.43426 3.830874,0 4.940065,-2.70897 4.940065,-12.0651 0,-6.26823 0.192264,-6.9349 2,-6.9349 1.85965,0 2,0.66667 2,9.5 0,8.16667 -0.280702,9.7807 -2,11.5 -2.361689,2.36169 -10.546468,2.78333 -13.408266,0.69074 z M 96.681534,378.5 c 0,-11.2618 0.0466,-11.49982 2.25,-11.49144 1.708066,0.007 3.333866,1.75273 6.749996,7.25 l 4.5,7.24144 0.29381,-7.25 c 0.26054,-6.42908 0.51531,-7.25 2.25,-7.25 1.82818,0 1.95619,0.75252 1.95619,11.5 0,11.2618 -0.0466,11.49982 -2.25,11.49144 -1.70807,-0.007 -3.33387,-1.75273 -6.75,-7.25 l -4.5,-7.24144 -0.29381,7.25 c -0.26054,6.42908 -0.5153,7.25 -2.249995,7.25 -1.828185,0 -1.956191,-0.75252 -1.956191,-11.5 z m 22.999996,0 V 367 h 2.5 2.5 v 11.5 11.5 h -2.5 -2.5 z m 14.88915,8.75 c -3.06869,-7.9511 -6.88915,-18.73255 -6.88915,-19.4414 0,-0.44473 1.04711,-0.8086 2.32692,-0.8086 2.00991,0 2.70632,1.08989 5.1118,8 1.53169,4.4 2.92262,8 3.09096,8 0.16834,0 1.50499,-3.6 2.97032,-8 2.35107,-7.05961 2.94846,-8 5.08212,-8 1.32983,0 2.41788,0.20267 2.41788,0.45039 0,0.43077 -6.03708,17.15628 -7.50763,20.79961 -1.15047,2.85033 -5.36344,2.21231 -6.60322,-1 z m 17.11085,-8.75 V 367 h 9.07332 c 8.1016,0 9.03763,0.18742 8.73996,1.75 -0.26742,1.40383 -1.56771,1.80889 -6.57332,2.04772 -5.87598,0.28035 -6.23996,0.44076 -6.23996,2.75 0,2.33385 0.29329,2.45228 6.07332,2.45228 5.24433,0 6.02787,0.23887 5.74029,1.75 -0.26272,1.38044 -1.54526,1.81333 -6.07333,2.0499 -5.62207,0.29373 -5.74028,0.36066 -5.74028,3.25 V 386 h 6.5 c 5.83333,0 6.5,0.20513 6.5,2 0,1.85185 -0.66667,2 -9,2 h -9 z m 22,0 V 367 l 7.75,0.0153 c 8.60418,0.017 9.70669,0.41625 11.05979,4.00504 1.1985,3.17877 -0.20181,7.0079 -2.81246,7.6906 -2.01777,0.52766 -2.66317,1.84194 -1.20591,2.45572 0.99123,0.41749 6.20858,7.2896 6.20858,8.17772 0,0.36059 -1.25298,0.65561 -2.78439,0.65561 -2.06053,0 -3.26632,-0.81583 -4.63814,-3.13813 C 184.79361,382.68829 182.02085,380 180.18153,380 c -1.13333,0 -1.5,1.22222 -1.5,5 0,4.66667 -0.16667,5 -2.5,5 h -2.5 z m 14.28278,-3.38397 c 0.43053,-0.42988 0.49489,-1.53184 0.14301,-2.44881 C 187.64447,371.46103 186.25277,371 183.07454,371 c -4.25435,0 -4.39301,0.0987 -4.39301,3.12781 0,3.11961 0.0111,3.12603 4.25,2.44881 2.3375,-0.37344 4.60225,-1.03071 5.03278,-1.46059 z m 11.17177,12.42942 c -1.35,-1.35 -2.45455,-3.15 -2.45455,-4 0,-2.29462 4.28838,-1.91458 5.80536,0.51448 1.77472,2.84179 7.56026,2.38021 7.9916,-0.63757 0.2398,-1.67771 -0.53018,-2.31995 -4,-3.33639 -6.50945,-1.90686 -8.79696,-3.71515 -8.79696,-6.95404 0,-4.05881 3.29791,-6.63193 8.5,-6.63193 4.41518,0 8.5,2.47732 8.5,5.15499 0,1.8135 -3.77814,1.70973 -5.64286,-0.15499 -1.87106,-1.87106 -4.75349,-1.93228 -6.24703,-0.13268 -1.44184,1.73732 0.12505,3.13139 4.59293,4.08635 7.49503,1.60198 10.75199,8.0913 6.29696,12.54633 -3.05666,3.05666 -11.29159,2.79932 -14.54545,-0.45455 z M 219.68153,378.5 V 367 h 2.5 2.5 v 11.5 11.5 h -2.5 -2.5 z m 10,0 V 367 l 6.75,0.0318 c 9.54823,0.045 12.25,2.68708 12.25,11.97938 0,4.35067 -0.45017,5.59284 -2.92308,8.06574 -2.63817,2.63818 -3.5641,2.92308 -9.5,2.92308 h -6.57692 z m 13.04422,5.94672 c 0.70901,-0.85431 1.28911,-3.53033 1.28911,-5.94672 0,-5.66085 -1.58308,-7.5 -6.45577,-7.5 h -3.87756 v 7.5 7.5 h 3.87756 c 2.28588,0 4.40671,-0.6376 5.16666,-1.55328 z M 255.45706,378.5 c 4.23031,-10.60659 4.79184,-11.5 7.22807,-11.5 2.75986,0 3.10174,0.61862 10.0857,18.25 l 1.88152,4.75 h -2.50685 c -1.70355,0 -2.87185,-0.8011 -3.64592,-2.5 -0.97877,-2.14817 -1.79757,-2.5 -5.81805,-2.5 -4.02048,0 -4.83928,0.35183 -5.81805,2.5 -0.75956,1.66705 -1.94769,2.5 -3.56606,2.5 h -2.427 z m 10.22447,1.96788 c 0,-0.29266 -0.72384,-2.20516 -1.60854,-4.25 L 262.46445,372.5 261.14907,376 c -1.84437,4.90754 -1.81603,5 1.53246,5 1.65,0 3,-0.23945 3,-0.53212 z m 12,-1.96788 V 367 l 6.75,0.0318 c 10.1311,0.0477 12.7978,3.13177 12.36069,14.29512 -0.0659,1.68428 -1.2922,4.00844 -3.03377,5.75 -2.63817,2.63818 -3.5641,2.92308 -9.5,2.92308 h -6.57692 z m 13.03259,5.96073 c 1.73008,-2.08462 1.79183,-9.76154 0.095,-11.80663 C 289.96406,371.63565 287.94653,371 285.55909,371 h -3.87756 v 7.5 7.5 h 3.87756 c 2.27073,0 4.40693,-0.63786 5.15503,-1.53927 z M 301.68153,378.5 V 367 h 8.5 c 7.83333,0 8.5,0.15686 8.5,2 0,1.79704 -0.66667,2 -6.56955,2 -6.24088,0 -6.55357,0.11257 -6.25,2.25 0.28308,1.99318 0.97586,2.28423 6.06955,2.5499 4.93176,0.25723 5.75,0.57741 5.75,2.25 0,1.71679 -0.71785,1.9501 -6,1.9501 h -6 v 3 3 h 7 c 6.33333,0 7,0.19048 7,2 0,1.85185 -0.66667,2 -9,2 h -9 z m 36,2.06336 v -9.43664 l -3.24181,-0.31336 c -2.13505,-0.20638 -3.35499,-0.91081 -3.57332,-2.06336 -0.29702,-1.56789 0.66473,-1.75 9.24181,-1.75 8.90665,0 9.57332,0.13928 9.57332,2 0,1.61905 -0.66667,2 -3.5,2 h -3.5 v 9.5 c 0,9.46667 -0.009,9.5 -2.5,9.5 -2.49005,0 -2.5,-0.0376 -2.5,-9.43664 z m 15,-2.06336 V 367 h 9 c 8.33333,0 9,0.14815 9,2 0,1.79487 -0.66667,2 -6.5,2 -6.26667,0 -6.5,0.0897 -6.5,2.5 0,2.38889 0.26667,2.5 6,2.5 5.33333,0 6,0.22222 6,2 0,1.77778 -0.66667,2 -6,2 h -6 v 3 3 h 6.5 c 5.83333,0 6.5,0.20513 6.5,2 0,1.85185 -0.66667,2 -9,2 h -9 z m 25.40209,9.16944 c -3.53699,-3.04239 -4.62872,-12.14843 -1.94715,-16.24102 2.53217,-3.86458 8.07722,-5.88629 12.49698,-4.55637 3.60771,1.08556 6.59935,4.42696 5.52294,6.16863 -0.79269,1.28259 -4.47486,1.23148 -4.47486,-0.0621 0,-0.56179 -1.10657,-1.52562 -2.45904,-2.14185 -1.96918,-0.89722 -2.9652,-0.78876 -5,0.54449 -2.10405,1.37863 -2.54096,2.44601 -2.54096,6.20759 0,2.49848 0.46583,5.41311 1.03518,6.47695 1.426,2.6645 6.4057,2.57061 8.31604,-0.1568 1.52911,-2.18309 4.68872,-2.29292 5.38978,-0.18735 0.2237,0.67188 -0.73106,2.35938 -2.12168,3.75 -3.44732,3.44732 -10.32818,3.54307 -14.21723,0.19785 z M 399.68153,378.5 c 0,-11.28919 0.0416,-11.5 2.26994,-11.5 1.73923,0 3.31737,1.69504 6.75,7.25 l 4.48006,7.25 0.29381,-7.25 c 0.26054,-6.42908 0.51531,-7.25 2.25,-7.25 1.82818,0 1.95619,0.75252 1.95619,11.5 0,11.2618 -0.0466,11.49982 -2.25,11.49144 -1.70807,-0.007 -3.33387,-1.75273 -6.75,-7.25 l -4.5,-7.24144 -0.29381,7.25 c -0.26054,6.42908 -0.51531,7.25 -2.25,7.25 -1.82818,0 -1.95619,-0.75252 -1.95619,-11.5 z m 25.92308,8.57692 c -2.5146,-2.5146 -2.92308,-3.68356 -2.92308,-8.36514 0,-6.43156 2.2518,-9.97972 7.41495,-11.68371 9.37732,-3.0948 17.76437,5.8385 14.56966,15.51857 -1.66475,5.04424 -5.28372,7.45336 -11.19639,7.45336 -4.12895,0 -5.423,-0.48093 -7.86514,-2.92308 z m 12.63579,-2.49631 c 3.0266,-2.2131 2.71845,-10.12788 -0.49564,-12.73049 -2.74839,-2.22551 -6.73879,-1.81994 -8.81323,0.89574 -1.80244,2.35961 -1.55798,9.25634 0.40499,11.4254 1.97577,2.1832 6.21167,2.37794 8.90388,0.40935 z M 449.68153,378.5 c 0,-10.83333 0.11594,-11.5 2,-11.5 1.85965,0 2,0.66667 2,9.5 v 9.5 h 6 c 5.33333,0 6,0.22222 6,2 0,1.83333 -0.66667,2 -8,2 h -8 z m 22.68647,9.08523 c -3.15402,-2.92304 -4.11871,-6.32595 -3.37187,-11.89407 1.00194,-7.47003 8.62597,-11.41414 16.05973,-8.30811 7.29832,3.04943 8.82095,14.37207 2.67164,19.86695 -4.19037,3.74441 -11.50859,3.90414 -15.3595,0.33523 z m 12.75683,-3.80774 c 3.92002,-5.59662 -0.36409,-14.73526 -6.24362,-13.31853 -1.48483,0.35778 -3.26218,1.38688 -3.94968,2.2869 -1.80244,2.35961 -1.55798,9.25634 0.40499,11.4254 2.37765,2.62727 7.8258,2.4081 9.78831,-0.39377 z m 13.444,3.41312 c -4.14889,-3.70703 -5.06147,-10.99902 -1.98857,-15.88979 3.75781,-5.98086 14.70807,-6.55389 18.61822,-0.97429 1.39538,1.99114 1.36239,2.24533 -0.39325,3.03004 -1.37852,0.61614 -2.75547,0.23621 -4.90586,-1.35364 -4.9511,-3.6605 -10.21784,-0.64721 -10.21784,5.84599 0,6.62499 4.43823,9.83882 10.41821,7.54409 C 512.7626,384.37118 512.05797,381 509.18153,381 c -1.55556,0 -2.5,-0.56667 -2.5,-1.5 0,-1.13333 1.22222,-1.5 5,-1.5 h 5 v 4.47432 c 0,3.94332 -0.35014,4.65538 -2.95034,6 -4.92859,2.54867 -11.49543,1.99269 -15.16236,-1.28371 z M 520.68153,378.5 V 367 h 2.5 2.5 v 11.5 11.5 h -2.5 -2.5 z m 13.36704,9.72776 c -7.10277,-5.75346 -5.27247,-18.45372 3.05557,-21.20222 4.33484,-1.43062 10.025,0.0738 11.63131,3.07521 2.10031,3.92447 -0.76126,5.06121 -4.78105,1.89925 -1.39842,-1.1 -3.1569,-2 -3.90773,-2 -0.75083,0 -2.26514,0.9 -3.36514,2 -2.66154,2.66154 -2.76334,9.99922 -0.17126,12.34501 2.54261,2.30103 6.85253,2.11906 8.17126,-0.34501 1.29901,-2.42722 3.82811,-2.61152 4.69884,-0.34242 0.41817,1.08974 -0.29683,2.46004 -2.08714,4 -3.34107,2.87386 -10.04446,3.16244 -13.24466,0.57018 z m 18.63296,1.04314 c 0,-0.40101 1.9125,-5.57315 4.25,-11.49365 3.89628,-9.86864 4.46857,-10.76508 6.87616,-10.7709 2.38748,-0.006 3.00951,0.91738 6.8443,10.15762 2.31998,5.59018 4.44886,10.76518 4.73083,11.5 0.34772,0.90614 -0.33412,1.33603 -2.11905,1.33603 -1.88706,0 -2.9007,-0.70741 -3.58224,-2.5 -0.83915,-2.20712 -1.53692,-2.5 -5.9562,-2.5 -4.50542,0 -5.06841,0.24985 -5.63316,2.5 -0.45048,1.79487 -1.30201,2.5 -3.01905,2.5 -1.31537,0 -2.39159,-0.3281 -2.39159,-0.7291 z m 14,-9.15609 c 0,-0.48685 -0.64381,-2.39935 -1.4307,-4.25 l -1.4307,-3.36481 -1.5693,3.71788 c -2.04397,4.84245 -2.06202,4.78212 1.4307,4.78212 1.65,0 3,-0.39834 3,-0.88519 z m 20,-1.61481 V 367 h 8 c 7.33333,0 8,0.16667 8,2 0,1.75758 -0.66667,2 -5.5,2 -5.16714,0 -5.5,0.14799 -5.5,2.44521 0,2.20691 0.46203,2.47491 4.74101,2.75 3.5723,0.22966 4.82292,0.73618 5.07332,2.05479 0.28112,1.48037 -0.44934,1.75 -4.74101,1.75 h -5.07332 v 5 c 0,4.66667 -0.16667,5 -2.5,5 h -2.5 z m 20,0 V 367 h 9.07332 c 8.1016,0 9.03763,0.18742 8.73996,1.75 -0.26742,1.40383 -1.56771,1.80889 -6.57332,2.04772 -5.87598,0.28035 -6.23996,0.44076 -6.23996,2.75 0,2.33057 0.2978,2.45228 6,2.45228 5.33333,0 6,0.22222 6,2 0,1.77778 -0.66667,2 -6,2 h -6 v 3 3 h 6.5 c 5.83333,0 6.5,0.20513 6.5,2 0,1.85185 -0.66667,2 -9,2 h -9 z m 22,0.1093 V 367 h 7.07692 c 6.55079,0 7.30296,0.22604 10.11728,3.04035 2.84685,2.84685 3.01273,3.42211 2.60645,9.03884 -0.61875,8.55411 -2.58138,10.26988 -12.30944,10.76112 l -7.49121,0.37829 z m 13.96482,5.45644 c 0.56935,-1.06384 1.03518,-3.56842 1.03518,-5.56574 0,-5.70538 -1.44412,-7.5 -6.03518,-7.5 h -3.96482 v 7.5 7.5 h 3.96482 c 2.89644,0 4.24376,-0.52121 5,-1.93426 z M 652.68153,378.5 V 367 h 9 c 8.33333,0 9,0.14815 9,2 0,1.79487 -0.66667,2 -6.5,2 -6.26667,0 -6.5,0.0897 -6.5,2.5 0,2.38889 0.26667,2.5 6,2.5 5.33333,0 6,0.22222 6,2 0,1.77778 -0.66667,2 -6,2 h -6 v 3 3 h 6.5 c 5.83333,0 6.5,0.20513 6.5,2 0,1.85185 -0.66667,2 -9,2 h -9 z m 23,0 V 367 h 7.5 c 8.28186,0 11.5,1.77558 11.5,6.34501 0,2.41563 -2.76227,5.65499 -4.82214,5.65499 -1.11396,0 5.2647,9.19722 6.78479,9.78279 0.40375,0.15553 2.64478,-4.68197 4.98006,-10.75 C 705.5819,367.74914 706.05415,367 708.57916,367 c 2.45463,0 3.02464,0.77453 6.07164,8.25 1.84948,4.5375 3.96904,9.7125 4.71013,11.5 1.31274,3.16629 1.28215,3.25 -1.18742,3.25 -1.73343,0 -2.89499,-0.79041 -3.67393,-2.5 -0.98777,-2.16791 -1.78522,-2.5 -6.00332,-2.5 -4.26838,0 -4.98066,0.30624 -5.81473,2.5 -0.85157,2.23979 -1.51138,2.5 -6.33925,2.5 -5.17143,0 -5.50221,-0.16372 -8.20217,-4.05977 -5.18809,-7.48641 -8.45858,-7.84995 -8.45858,-0.94023 0,4.33333 -0.26667,5 -2,5 -1.88406,0 -2,-0.66667 -2,-11.5 z m 36,1.96788 c 0,-0.29266 -0.70619,-2.20516 -1.5693,-4.25 l -1.5693,-3.71788 -1.4307,3.36481 c -1.98565,4.66997 -1.84348,5.13519 1.5693,5.13519 1.65,0 3,-0.23945 3,-0.53212 z m -22.61722,-5.47848 c 2.07382,-2.00848 -0.33512,-3.9894 -4.8514,-3.9894 -4.08049,0 -4.53138,0.23217 -4.53138,2.33333 0,1.28334 0.33032,2.66366 0.73405,3.06739 0.87332,0.87332 7.38731,-0.18964 8.64873,-1.41132 z m 34.61722,3.5106 c 0,-10.83333 0.11594,-11.5 2,-11.5 1.85965,0 2,0.66667 2,9.5 v 9.5 h 6 c 5.33333,0 6,0.22222 6,2 0,1.83333 -0.66667,2 -8,2 h -8 z m 29,0 V 367 l 6.75,0.0318 c 9.54823,0.045 12.25,2.68708 12.25,11.97938 0,4.35067 -0.45017,5.59284 -2.92308,8.06574 -2.63817,2.63818 -3.5641,2.92308 -9.5,2.92308 h -6.57692 z m 12.96089,6.04713 c 0.66318,-0.79908 1.20578,-3.52029 1.20578,-6.04713 0,-5.81874 -1.40982,-7.5 -6.28911,-7.5 h -3.87756 v 7.5 7.5 h 3.87756 c 2.17086,0 4.40827,-0.63948 5.08333,-1.45287 z m 12.96219,2.52979 c -2.52994,-2.52993 -2.92308,-3.67102 -2.92308,-8.48422 0,-4.70867 0.4394,-6.05292 2.86642,-8.76923 2.51875,-2.81897 3.48677,-3.20809 7.98085,-3.20809 6.03903,0 9.57379,2.62833 11.13397,8.27883 C 799.98355,383.29939 795.01856,390 786.46975,390 c -4.12895,0 -5.423,-0.48093 -7.86514,-2.92308 z m 11.67722,-1.84223 c 3.99102,-2.66488 4.07399,-10.94856 0.13727,-13.70595 -2.95235,-2.0679 -5.34407,-1.92224 -7.73757,0.47126 -2.52644,2.52644 -2.72528,9.54109 -0.34501,12.17126 1.672,1.84754 5.91956,2.41605 7.94531,1.06343 z M 811.68153,378.5 V 367 h 7 c 7.76159,0 11,1.8739 11,6.36514 0,4.34838 -3.52616,7.49337 -8.78046,7.83131 l -4.71954,0.30355 -0.3075,4.25 c -0.24859,3.43587 -0.6796,4.25 -2.25,4.25 -1.81073,0 -1.9425,-0.78013 -1.9425,-11.5 z m 12.5,-4.5 c 0,-2.22627 -0.46533,-2.53367 -4.25,-2.8075 -4.15623,-0.30071 -4.25,-0.23877 -4.25,2.8075 0,3.04627 0.0938,3.10821 4.25,2.8075 3.78467,-0.27383 4.25,-0.58123 4.25,-2.8075 z m 6.41007,11.25 c 7.41023,-18.71381 7.15769,-18.25079 9.94627,-18.23555 2.42964,0.0133 3.02282,0.94429 7.32715,11.5 L 852.54851,390 h -2.82508 c -2.17943,0 -2.96849,-0.57136 -3.45254,-2.5 -0.56475,-2.25015 -1.12774,-2.5 -5.63316,-2.5 -4.41928,0 -5.11705,0.29288 -5.9562,2.5 -0.66545,1.75026 -1.70329,2.5 -3.46066,2.5 h -2.51016 z m 13.08993,-4.62788 c 0,-0.20783 -0.74117,-2.12033 -1.64704,-4.25 l -1.64703,-3.87212 -1.30786,3 c -1.98847,4.56119 -1.71503,5.5 1.60193,5.5 1.65,0 3,-0.17004 3,-0.37788 z m 11,-2.12212 V 367 h 8 c 6.66667,0 8.33333,0.33333 10,2 1.1,1.1 2,2.79987 2,3.77749 0,2.44619 -2.79317,6.22251 -4.60251,6.22251 -1.02354,0 -0.38052,1.45186 2.0567,4.6438 4.19956,5.5 4.34691,6.3562 1.09385,6.3562 -1.7707,0 -3.28918,-1.21686 -5.46526,-4.37968 -2.7736,-4.0313 -4.79923,-5.62032 -7.16457,-5.62032 -0.50501,0 -0.91821,2.25 -0.91821,5 0,4.66667 -0.16667,5 -2.5,5 h -2.5 z m 14.38278,-3.5106 c 2.07382,-2.00848 -0.33512,-3.9894 -4.8514,-3.9894 -4.08049,0 -4.53138,0.23217 -4.53138,2.33333 0,1.28334 0.33032,2.66366 0.73405,3.06739 0.87332,0.87332 7.38731,-0.18964 8.64873,-1.41132 z m 9.52729,10.2606 c 7.40524,-18.7012 7.15934,-18.25004 9.94627,-18.2493 2.43333,6.4e-4 3.0162,0.91559 7.32609,11.5 L 900.5464,390 h -2.82403 c -2.1783,0 -2.96749,-0.57163 -3.45148,-2.5 -0.56475,-2.25015 -1.12774,-2.5 -5.63316,-2.5 -4.41928,0 -5.11705,0.29288 -5.9562,2.5 -0.66545,1.75026 -1.70329,2.5 -3.46066,2.5 h -2.51016 z m 13.08993,-4.62788 c 0,-0.20783 -0.74117,-2.12033 -1.64704,-4.25 l -1.64703,-3.87212 -1.30786,3 c -1.98847,4.56119 -1.71503,5.5 1.60193,5.5 1.65,0 3,-0.17004 3,-0.37788 z m 11,-2.12212 V 367 l 2.75,0.009 c 2.32917,0.007 3.43863,1.11672 7.25,7.25 l 4.5,7.24144 0.29381,-7.25 c 0.26054,-6.42908 0.51531,-7.25 2.25,-7.25 1.82818,0 1.95619,0.75252 1.95619,11.5 0,11.28919 -0.0416,11.5 -2.26994,11.5 -1.73923,0 -3.31737,-1.69504 -6.75,-7.25 l -4.48006,-7.25044 -0.29381,7.25 c -0.28175,6.95244 -0.39462,7.25 -2.75,7.25 h -2.45619 z m 23.91007,6.75 c 7.43798,-18.78388 7.145,-18.25 10.01519,-18.25 2.52696,0 3.02643,0.78692 7.29921,11.5 l 4.58664,11.5 h -2.427 c -1.61837,0 -2.8065,-0.83295 -3.56606,-2.5 -0.98777,-2.16791 -1.78522,-2.5 -6.00332,-2.5 -4.26838,0 -4.98066,0.30624 -5.81473,2.5 -0.66545,1.75026 -1.70329,2.5 -3.46066,2.5 h -2.51016 z m 13.08993,-4.62788 c 0,-0.20783 -0.72072,-2.10279 -1.60159,-4.21102 l -1.60159,-3.83315 -1.39841,3.32584 c -1.94825,4.6335 -1.80283,5.09621 1.60159,5.09621 1.65,0 3,-0.17004 3,-0.37788 z M 478.07454,363.41821 c 0.33385,-0.86998 0.60699,-1.76998 0.60699,-2 0,-0.23001 1.19474,-0.41821 2.65499,-0.41821 2.59164,0 2.6118,0.0477 0.84501,2 -2.19039,2.42035 -4.98446,2.70487 -4.10699,0.41821 z M 934.68153,363 c 0.65222,-1.21868 2.09382,-2 3.69017,-2 2.55646,0 2.57604,0.0484 0.80983,2 -0.99549,1.1 -2.65606,2 -3.69017,2 -1.57032,0 -1.70379,-0.32962 -0.80983,-2 z m -771.5,-16.0824 C 141.3525,343.95076 119.63931,335.47831 106.97927,324.98758 96.219332,316.07137 86.918914,302.16293 81.911732,287.5 76.08049,270.4239 76.316718,275.2467 75.948224,165.75 L 75.609166,65 h 28.036184 28.03618 l 0.004,88.75 c 0.004,96.12562 0.14915,99.13932 5.49896,114.45163 6.43029,18.4049 18.17502,29.83975 35.14136,34.21418 7.79587,2.01 24.75798,2.0492 33.12482,0.0765 16.53514,-3.8985 28.23998,-14.65151 34.73684,-31.91206 6.06095,-16.10246 5.82199,-11.76293 6.21308,-112.8303 L 246.75952,65 h 190.46101 190.461 v 22 22 H 516.68566 405.68979 l -0.25413,117.25 -0.25413,117.25 -27.75,0.26582 -27.75,0.26582 V 226.51582 109 h -23.45487 -23.45487 l -0.35899,78.75 c -0.34761,76.25664 -0.4261,79.01912 -2.47887,87.25 -10.07831,40.41025 -31.81441,60.88747 -74.47515,70.16177 -7.40873,1.61063 -13.90966,2.08636 -32.27725,2.36203 -12.65,0.18985 -26.15,-0.0829 -30,-0.6062 z m 323.16667,-3.58427 c -0.36667,-0.36666 -0.66667,-37.71666 -0.66667,-83 V 178 h 71.0195 71.0195 l -0.2695,21.75 -0.2695,21.75 -44.25,0.2604 -44.25,0.2604 V 283.0104 344 H 512.8482 c -14.20834,0 -26.13334,-0.3 -26.5,-0.66667 z m 163.33333,-82.46245 v -83.12913 l 42.25,0.54802 c 46.04528,0.59725 51.26972,1.14693 60.94347,6.41204 9.62937,5.24097 17.15707,14.28203 20.97519,25.19204 2.52585,7.21744 3.4404,21.72217 1.93361,30.66681 -3.0966,18.38202 -16.32232,32.88836 -34.67713,38.03487 -4.48036,1.25625 -12.26494,1.81291 -31.92514,2.28291 l -26,0.62156 -0.26425,31.25 -0.26424,31.25 h -16.48576 -16.48575 z m 79,-10.48413 c 4.79047,-2.18569 10.46437,-7.89754 12.16648,-12.24784 0.56788,-1.4514 1.04398,-5.35908 1.05801,-8.68373 0.0389,-9.20772 -3.96963,-15.81618 -12.08275,-19.91987 -4.4002,-2.22566 -19.64528,-3.68938 -34.64174,-3.32605 l -12,0.29074 -0.26868,23.35134 -0.26868,23.35134 20.76868,-0.38138 c 18.31907,-0.3364 21.29944,-0.62354 25.26868,-2.43455 z m 57,10.50874 v -83.1045 l 46.75,0.50354 c 50.87933,0.54801 55.90287,1.02559 66.77258,6.34796 13.27739,6.50131 22.43556,22.6274 22.46555,39.55829 0.0403,22.76482 -12.15024,38.66719 -33.99167,44.34155 -3.57305,0.92827 -7.12131,1.87079 -7.88502,2.0945 -0.82818,0.24259 0.5843,1.69621 3.5,3.60193 6.58391,4.30328 15.9706,13.82582 21.51203,21.82334 5.38641,7.77379 29.87653,46.63035 29.87653,47.40276 0,0.29433 -8.8875,0.52416 -19.75,0.51075 l -19.75,-0.0244 -12.92995,-19.22561 c -7.11146,-10.57408 -15.98434,-23.56386 -19.71749,-28.86617 -12.436,-17.66325 -16.01956,-19.96913 -32.10256,-20.65673 l -10.75,-0.4596 V 309.37155 344 h -17 -17 z m 89.5,-14.75994 c 7.68925,-3.23662 11.79412,-9.89662 11.79412,-19.13555 0,-9.61247 -3.41541,-15.00043 -11.80777,-18.6273 -3.32457,-1.43676 -8.26113,-1.79639 -29.73635,-2.16631 l -25.75,-0.44356 v 21.20442 21.20442 l 26.25,-0.38667 c 18.09553,-0.26655 27.18194,-0.77895 29.25,-1.64945 z"
       id="path891" />
    <path
       style="fill:#ffcc00;fill-opacity:1"
       d="m 418.06329,378.5 c 0.002,-6.6 0.16382,-9.16987 0.35965,-5.71081 0.19583,3.45905 0.19422,8.85905 -0.004,12 -0.19781,3.14094 -0.35803,0.31081 -0.35606,-6.28919 z m 334,0 c 0.002,-6.6 0.16382,-9.16987 0.35965,-5.71081 0.19583,3.45905 0.19422,8.85905 -0.004,12 -0.19781,3.14094 -0.35803,0.31081 -0.35606,-6.28919 z m -24.01653,-2 c 0.003,-5.5 0.17053,-7.62242 0.37317,-4.71648 0.20265,2.90594 0.20052,7.40594 -0.005,10 -0.20498,2.59406 -0.37077,0.21648 -0.36817,-5.28352 z m -219.11523,0.78375 c 1.5125,-0.22913 3.9875,-0.22913 5.5,0 1.5125,0.22912 0.275,0.41659 -2.75,0.41659 -3.025,0 -4.2625,-0.18747 -2.75,-0.41659 z m -91.25,-145.28836 v -112.0046 l 104.75,0.2546 104.75,0.25461 0.2695,21.75 0.2695,21.75 h -77.0195 -77.0195 v 90 90 h -28 -28 z m 291.75,-25.65767 c 0.6875,-0.27741 1.8125,-0.27741 2.5,0 0.6875,0.27741 0.125,0.50439 -1.25,0.50439 -1.375,0 -1.9375,-0.22698 -1.25,-0.50439 z"
       id="path889" />
  </g>
</svg>
